<svg width="61" height="60" viewBox="0 0 61 60" fill="none" xmlns="http://www.w3.org/2000/svg">
<path d="M56.2234 19.6433L41.0077 4.50879C39.2057 2.81649 37.0593 1.52785 34.7133 0.729811C29.5147 -0.989598 24.3411 0.352521 20.1511 4.50879L4.89791 19.6433C3.19445 21.4334 1.89729 23.5657 1.09397 25.8963C-0.643038 31.0607 0.70796 36.2005 4.89791 40.3567L20.1325 55.4912C21.9315 57.1842 24.076 58.4728 26.4205 59.2701C27.8408 59.7473 29.3291 59.9936 30.8284 60C34.4829 60 37.9818 58.4661 40.9827 55.4912L56.2109 40.3567C57.9165 38.5673 59.216 36.4348 60.021 34.1037C61.7519 28.9393 60.4008 23.8058 56.2109 19.6433H56.2234ZM31.7436 8.89391C32.8944 9.26047 33.9427 9.86929 34.844 10.669L39.3454 15.1469L30.5669 23.8614L21.7885 15.1407L26.3147 10.6381C27.5287 9.43818 29.2408 8.16409 31.7436 8.89391ZM9.33069 28.828C9.70082 27.6838 10.3097 26.63 11.1175 25.7355L15.6188 21.2638L24.3971 29.9845L15.6125 38.7053L11.0864 34.2026C9.87235 33.0028 8.59606 31.3019 9.32446 28.8156L9.33069 28.828ZM29.3902 51.1309C28.2379 50.7678 27.1767 50.1152 26.2773 49.3126L21.7885 44.8902L30.5669 36.1634L39.3454 44.8839L34.819 49.3867C33.6051 50.5863 31.8992 51.8605 29.3902 51.1309ZM51.8031 31.1968C51.433 32.3396 50.8265 33.393 50.0226 34.2892L45.5212 38.7053L36.743 29.9845L45.5212 21.2638L50.0476 25.7602C51.2614 26.9601 52.5315 28.7104 51.8031 31.1968Z" fill="#1CAAD6" style="fill:#1CAAD6;fill:color(display-p3 0.1098 0.6667 0.8392);fill-opacity:1;"/>
</svg>
