<svg width="1227" height="1039" viewBox="0 0 1227 1039" fill="none" xmlns="http://www.w3.org/2000/svg">
<path d="M790.064 892.117L789.196 871.954C837.533 892.268 865.968 935.524 874.144 954.612C884.714 923.432 914.464 859.664 948.903 854.032C983.342 848.4 986.302 868.818 983.477 879.731C918.727 903.821 888.288 965.126 881.162 992.766C860.571 940.376 811.85 903.838 790.064 892.117Z" fill="#CD5F27"/>
<path d="M787.282 888.079C787.282 888.079 862.037 942.401 882.674 994.078" stroke="black" stroke-width="6.84452" stroke-linecap="round"/>
<path d="M790.108 868.987C790.108 868.987 858.938 908.835 876.248 955.496" stroke="black" stroke-width="6.84452" stroke-linecap="round"/>
<path d="M981.273 878.892C953.77 888.305 892.039 941.248 880.151 992.204" stroke="black" stroke-width="6.84452" stroke-linecap="round"/>
<path d="M951.053 852.526C906.777 874.209 888.366 914.372 875.127 954.67" stroke="black" stroke-width="6.84452" stroke-linecap="round"/>
<path d="M970.613 862.936C945.763 878.357 921.261 893.227 904.301 917.735" stroke="black" stroke-width="6.84452" stroke-linecap="round"/>
<path d="M465.406 906.323L449.741 872.6C419.158 998.617 454.963 978.562 465.406 996.511C434.076 986.394 389.046 965.806 363.982 990.087C338.918 1014.37 353.538 1032.5 363.982 1036.74C421.942 999.143 465.872 1005.99 492.307 1016.76C437.645 948.314 461.816 930.8 465.406 906.323Z" fill="#CD5F27"/>
<path d="M462.056 913.406L457.685 950.382C457.685 966.714 469.268 988.017 498.177 1012.87" stroke="black" stroke-width="6.84452" stroke-linecap="round"/>
<path d="M440.637 904.95C440.636 929.804 429.985 963.889 445.607 975.25L466.91 1000.81" stroke="black" stroke-width="6.84452" stroke-linecap="round"/>
<path d="M491.326 1015.17C448.456 1015.17 401.59 997.975 373.896 1034.9" stroke="black" stroke-width="6.84452" stroke-linecap="round"/>
<path d="M463.359 1000.81C420.754 990.161 383.118 990.873 354.714 1010.99" stroke="black" stroke-width="6.84452" stroke-linecap="round"/>
<path d="M460.526 992.991C445.615 981.631 397.328 975.244 363.953 987.316" stroke="black" stroke-width="6.84452" stroke-linecap="round"/>
<path d="M822.072 807.684L826.628 607.792C929.071 596.318 1012 547.71 1048.5 465.21C1068.41 454.573 1213.3 454.899 1213 432.658C1212.7 410.416 1235.5 364.21 1073.5 347.21C1073.5 337.21 1073.5 298.71 1059.5 298.71C1023.5 277.71 1043 338.21 999.5 364.21C988.885 364.21 1002.25 353.685 953.5 384.71C917.297 407.748 820.942 450.944 826.628 437.32L766.187 143.627C773.583 141.513 789.853 132.847 795.769 115.092C801.686 97.3364 755.27 89.3748 731.323 87.6133C772.527 89.727 842.418 51.927 795.769 30.5431C740.612 5.259 683.075 30.8954 662.649 43.2254C667.981 30.5405 673.357 12.5453 662.649 10.4629C540.938 -13.2054 448.53 106.285 417.539 168.991C402.325 196.047 433.109 362.164 451.203 432.658C451.728 433.113 462.711 513.409 417.539 647.875C420.775 658.341 400.883 688.609 400.973 695.828C397.319 699.484 338.167 685.378 306.01 681.723C262.992 708.391 233.795 728.77 232.182 744.718C257.59 758.591 327.129 788.415 433.109 839.681C436.005 862.899 428.24 891.799 433.109 894.214C520.079 937.347 496.875 860.366 538.245 869.768C573.966 877.886 695.262 859.425 712.186 844.382C722.424 860.18 767.163 883.195 779.883 894.214C803.864 914.986 841.937 875.409 822.072 807.684Z" fill="#F1CF58"/>
<path fill-rule="evenodd" clip-rule="evenodd" d="M733.585 356.259C696.33 368.457 672.334 366.973 620.427 353.659C640.721 383.239 653.889 398.531 680.211 419.989C709.106 397.742 719.934 383.933 733.585 356.259Z" fill="#DC6126"/>
<path fill-rule="evenodd" clip-rule="evenodd" d="M622.941 356.619C676.397 382.434 695.173 379.124 732.625 366.679C741.958 363.796 752.118 350.327 760.554 345.524C727.839 325.442 708.934 311.079 672.591 298.206C661.052 318.888 651.511 333.51 622.941 356.619Z" fill="#F17727"/>
<path d="M699.274 137.09C766.339 183.678 849.645 91.7318 738.815 89.2121C727.637 88.9579 688.573 84.186 699.274 80.9423C738.815 99.0129 805.928 76.4503 808.691 46.974C810.199 30.8777 771.392 22.2154 744.435 22.2154C684.435 26.7331 654.757 46.974 664.434 46.974C673.266 46.974 676.962 17.597 653.467 6.72263C570.161 -14.9077 438.623 97.297 416.691 168.071C407.336 198.258 435.967 381.782 451.554 431.678" stroke="black" stroke-width="6.84452" stroke-linecap="round"/>
<path d="M757.538 345.492C740.266 366.192 715.343 376.795 688.653 377.106C660.72 377.433 628.95 366.967 609.503 346.263" stroke="black" stroke-width="6.84452" stroke-linecap="round"/>
<path d="M761.085 346.748C735.613 329.169 696.387 310.444 668.668 296.837" stroke="black" stroke-width="6.84452" stroke-linecap="round"/>
<path d="M671.9 300.521C664.961 313.563 656.853 325.666 646.5 336.304C638.807 344.208 629.582 350.323 620.951 357.11" stroke="black" stroke-width="6.84452" stroke-linecap="round"/>
<path d="M729.182 367.786C715.414 388.399 702.889 405.032 681.358 417.145" stroke="black" stroke-width="6.84452" stroke-linecap="round"/>
<path d="M683.41 423.976C663.982 409.061 640.242 378.333 625.49 356.816" stroke="black" stroke-width="6.84452" stroke-linecap="round"/>
<path d="M769.388 147.495C769.388 147.495 817.025 378.19 820.792 450.099" stroke="black" stroke-width="6.84452" stroke-linecap="round"/>
<path d="M741.062 289.381C786.28 288.516 793.044 239.042 790.066 218.851L735.546 224.545L684.906 242.422C693.635 281.392 728.478 291.815 741.062 289.381Z" fill="white"/>
<path d="M743.049 225.301C758.791 254.446 708.635 266.107 714.736 231.647L743.049 225.301Z" fill="#030405" stroke="#030405" stroke-width="6.84452" stroke-linecap="round"/>
<path d="M791.698 218C775.867 216.199 759.853 219.96 744.41 223.015C726.732 226.512 699.326 235.662 682.594 242.456" stroke="black" stroke-width="6.84452" stroke-linecap="round"/>
<path d="M793.325 222.266C798.175 247.538 780.289 278.097 756.904 287.603C741.689 293.787 722.64 292.368 708.914 283.258C702.283 278.857 696.436 273.016 691.802 266.554C686.556 259.237 684.838 251.577 682.306 243.182" stroke="black" stroke-width="6.84452" stroke-linecap="round"/>
<path d="M577.51 295.608C621.823 304.654 635.916 266.207 637.423 245.853L530.033 236.806C530.033 282.038 564.699 295.231 577.51 295.608Z" fill="white"/>
<path d="M592.492 245.39C601.483 277.273 549.992 277.682 563.477 245.39H592.492Z" fill="#030405" stroke="#030405" stroke-width="6.84452" stroke-linecap="round"/>
<path d="M639.579 242.258C634.266 333.419 520.25 303.169 532.918 239.802" stroke="black" stroke-width="6.84452" stroke-linecap="round"/>
<path d="M641.945 240.222C604.587 240.222 567.707 240.37 530.331 238.932" stroke="black" stroke-width="6.84452" stroke-linecap="round"/>
<path d="M561.199 852.533C516.687 874.225 475.85 921.017 451.597 911.598C436.094 907.792 419.865 875.275 444.29 822.984" stroke="black" stroke-width="6.84452" stroke-linecap="round"/>
<path d="M435.746 843.431C370.995 808.161 288.789 770.209 223.324 740.132" stroke="black" stroke-width="6.84452" stroke-linecap="round"/>
<path d="M418.895 693.394C388.222 690.915 334.731 684.937 304.686 682.853" stroke="black" stroke-width="6.84452" stroke-linecap="round"/>
<path d="M305.073 682.853C275.233 701.796 258.304 720.975 234.444 740.131" stroke="black" stroke-width="6.84452" stroke-linecap="round"/>
<path d="M351.469 725.393C331.552 716.21 310.997 708.059 290.593 699.712" stroke="black" stroke-width="6.84452" stroke-linecap="round"/>
<path d="M343.039 754.7C315.979 739.176 288.823 727.594 259.928 716.779" stroke="black" stroke-width="6.84452" stroke-linecap="round"/>
<path d="M781.205 165.465C742.416 175.55 729.369 178.958 686.978 190.003C664.433 195.877 664.456 220.206 691.676 213.662C725.125 205.62 754.174 198.141 776.072 192.461C812.692 185.184 808.06 158.471 781.205 165.465Z" fill="#AB5C49"/>
<path d="M781.205 165.465C742.416 175.55 729.369 178.958 686.978 190.003C664.433 195.877 664.456 220.205 691.676 213.662C725.125 205.62 754.174 198.141 776.072 192.461C812.692 185.184 808.06 158.471 781.205 165.465Z" stroke="black" stroke-width="6.84452" stroke-linecap="round"/>
<path d="M634.888 218.215C594.815 218.797 581.332 219.009 537.531 219.668C514.237 220.019 508.485 243.657 536.479 243.766C570.881 243.9 600.874 243.535 623.494 243.219C660.794 244.849 662.636 217.799 634.888 218.215Z" fill="#AB5C49"/>
<path d="M634.888 218.215C594.815 218.797 581.332 219.009 537.531 219.668C514.237 220.019 508.485 243.657 536.479 243.766C570.881 243.9 600.874 243.535 623.494 243.219C660.794 244.849 662.636 217.799 634.888 218.215Z" stroke="black" stroke-width="6.84452" stroke-linecap="round"/>
<path d="M808.099 782.309C816.312 807.358 831.126 844.854 821.261 871.629" stroke="black" stroke-width="6.84452" stroke-linecap="round"/>
<path d="M827.842 863.17C821.068 884.205 790.085 898.497 769.548 900.779" stroke="black" stroke-width="6.84452" stroke-linecap="round"/>
<path d="M795.874 899.841C764.539 886.901 733.038 868.519 708.112 845.76" stroke="black" stroke-width="6.84452" stroke-linecap="round"/>
<path d="M720.655 843.426C682.841 856.362 643.879 865.287 603.859 867.193C577.444 868.45 551.391 867.243 525.089 865.051" stroke="black" stroke-width="6.84452" stroke-linecap="round"/>
<path d="M443.798 450.449C438.15 423.332 474.104 448.715 481.615 456.977C640.574 557.964 779.867 480.493 823.179 450.45C807.061 488.021 827.454 574.485 827.45 626.642C852.085 683.724 859.91 742.89 854.903 741.638C700.48 807.734 500.642 795.716 420.026 781.446C388.781 739.385 405.505 685.663 420.026 659.625C441.203 581.434 463.063 542.946 443.798 450.449Z" fill="white"/>
<path d="M844.963 770.915L851.748 742.077C708.574 799.075 501.447 792.968 415.78 782.789L447.163 820.958H586.266C683.977 830.458 799.443 791.554 844.963 770.915Z" fill="#F3F3FA"/>
<path d="M816.72 455.236C660.49 556.62 530.93 492.497 452.081 435.498" stroke="black" stroke-width="6.84452" stroke-linecap="round"/>
<path d="M848.002 772.182C744.671 818.351 632.97 823.844 521.555 823.844C492.329 823.844 463.737 821.759 434.853 817.512" stroke="black" stroke-width="6.84452" stroke-linecap="round"/>
<path d="M856.989 738.66C802.833 764.908 695.015 778.706 635.658 786.611C556.703 797.127 468.772 796.07 413.569 781.108" stroke="black" stroke-width="6.84452" stroke-linecap="round"/>
<path d="M443.346 817.42C432.085 806.472 422.858 792.989 415.556 779.115" stroke="black" stroke-width="6.84452" stroke-linecap="round"/>
<path d="M879.177 595.796L915.78 588.091C928.109 601.578 916.102 609.444 908.558 611.691L879.177 595.796Z" fill="white"/>
<path d="M848.887 525.274C841.473 498.311 859.28 446.068 869.11 423.317L819.395 442.698L830.35 623.014C863.491 618.239 924.045 608.352 901.127 607.004C872.479 605.319 858.154 558.976 848.887 525.274Z" fill="white"/>
<path d="M907.555 609.673C841.904 589.388 825.085 468.227 876.625 423.129" stroke="black" stroke-width="6.84452" stroke-linecap="round"/>
<path d="M922.163 592.547C921.866 610.382 908.543 615.176 892.315 618.483C876.226 621.762 859.784 623.014 843.39 623.36C839.363 623.444 833.508 622.364 830.53 625.342" stroke="black" stroke-width="6.84452" stroke-linecap="round"/>
<path d="M876.5 420.21C862.491 423.429 892.986 425.019 822.503 438.132" stroke="black" stroke-width="6.84452" stroke-linecap="round"/>
<path d="M818.464 432.479C811.908 660.035 856.136 709.226 856.54 732.46C856.818 748.431 849.511 760.01 840.207 772.177" stroke="black" stroke-width="6.84452" stroke-linecap="round"/>
<path d="M1072.57 348.375C1083.36 323.124 1069.91 302.573 1058.53 299.118C1053.01 297.444 1040.35 295.464 1036.52 301.254C1033.45 305.911 1034.4 314.203 1033.97 319.496C1033.88 337.262 1015.45 346.844 997.122 360.31L879.242 422.032M886.999 587.709C1026.5 550.709 1049.5 462.209 1049.5 462.209" stroke="black" stroke-width="6.5" stroke-linecap="round"/>
<path d="M1068.62 348.085C1089.49 349.618 1110.56 350.514 1131.29 353.405C1156.09 356.863 1179.65 366.487 1199.19 382.393C1237.7 413.762 1212.07 438.204 1185.02 440.062C1154.76 442.141 1079.76 459.958 1049.51 462.119" stroke="black" stroke-width="6.5" stroke-linecap="round"/>
<path d="M1219.31 406.8C1184.44 400.205 1159.57 394.492 1124.41 399.831" stroke="black" stroke-width="6.5" stroke-linecap="round"/>
<path d="M1190.66 376.91C1168.89 373.979 1147.95 374.413 1126.16 376.146" stroke="black" stroke-width="6.5" stroke-linecap="round"/>
<path d="M447.638 429.669L338.076 422.176C346.191 440.905 362.798 483.608 364.296 504.584C365.794 525.56 344.319 568.887 333.393 587.928L293.126 575.754C266.906 606.656 297.809 617.894 324.965 628.195C346.691 636.435 400.193 631.628 424.228 628.195C432.031 606.344 449.511 554.216 457.003 520.504C464.496 486.792 453.881 445.9 447.638 429.669Z" fill="white"/>
<path d="M360.549 518.628C368.04 482.668 351.809 439.342 342.758 422.174H170.454L149.852 393.146C117.639 393.146 131.436 429.979 142.361 448.396C118.95 466.813 68.1947 509.265 52.4625 531.739C32.7973 559.833 67.4456 581.371 77.7464 586.053C85.9871 589.799 174.2 551.405 217.276 531.739L330.585 586.053C337.452 578.562 353.059 554.588 360.549 518.628Z" fill="#F1CF58"/>
<path d="M145.092 448.806C124.492 432.834 126.173 409.581 134.024 401.465C137.831 397.53 147.423 390.048 153.267 393.088C157.968 395.533 161.003 402.851 163.799 407.045C172.068 421.743 191.773 421.195 213.193 423.912L339.457 420.756M331.538 584.683C275.772 571.53 218.96 530.922 218.96 530.922" stroke="black" stroke-width="6.84452" stroke-linecap="round"/>
<path d="M148.235 446.745C131.623 457.644 114.56 468.102 98.6884 480.065C79.7079 494.371 64.6005 513.22 55.7312 535.425C38.2409 579.214 70.781 587.671 94.0788 576.738C120.143 564.507 190.588 544.698 216.68 532.541" stroke="black" stroke-width="6.84452" stroke-linecap="round"/>
<path d="M50.3 564.948C76.1829 543.398 94.1867 527.186 125.814 515.403" stroke="black" stroke-width="6.84452" stroke-linecap="round"/>
<path d="M60.2848 526.942C76.9933 514.471 94.5663 505.174 113.446 496.561" stroke="black" stroke-width="6.84452" stroke-linecap="round"/>
<path d="M448.58 431.541C410.518 424.36 377.302 420.853 338.623 420.853" stroke="black" stroke-width="6.84452" stroke-linecap="round"/>
<path d="M341.531 418.926C375.941 460.123 373.249 592.834 303.755 603.525" stroke="black" stroke-width="6.84452" stroke-linecap="round"/>
<path d="M423.292 632.791C401.501 634.009 386.538 633.278 364.711 632.791C343.826 632.325 321.513 630.19 302.604 620.52C294.292 616.269 286.202 609.299 285.939 599.299C285.736 591.591 289.891 585.562 293.28 579.043" stroke="black" stroke-width="6.84452" stroke-linecap="round"/>
<path d="M454.477 436.23C484.796 519.608 412.815 655.288 404.449 690.913C399.414 712.36 399.664 758.945 412.814 777.356" stroke="black" stroke-width="6.84452" stroke-linecap="round"/>
<path d="M728.037 606.253L685.039 563.136C679.909 558.299 673.799 554.623 667.123 552.356C652.402 547.459 637.77 551.281 625.916 563.136L582.799 606.253C577.951 611.374 574.273 617.487 572.019 624.169C567.092 638.89 570.914 653.521 582.799 665.376L625.916 708.523C631.046 713.36 637.156 717.036 643.832 719.303C647.847 720.647 652.05 721.343 656.284 721.363C661.692 721.259 667.025 720.069 671.965 717.863C676.904 715.657 681.35 712.481 685.039 708.523L728.156 665.376C733.01 660.259 736.689 654.145 738.936 647.46C743.863 632.739 740.01 618.078 728.156 606.223L728.037 606.253ZM658.852 575.617C662.103 576.657 665.095 578.378 667.631 580.663L680.38 593.413L655.507 618.257L630.664 593.413L643.474 580.574C646.908 577.17 651.745 573.497 658.852 575.617ZM595.37 632.351C596.433 629.119 598.151 626.14 600.416 623.602L613.166 610.822L638.039 635.695L613.166 660.539L600.356 647.729C596.922 644.295 593.279 639.457 595.37 632.351ZM652.103 695.833C648.824 694.782 645.802 693.052 643.235 690.757L630.485 678.007L655.328 653.133L680.201 678.007L667.362 690.816C663.957 694.25 659.09 697.923 652.014 695.803L652.103 695.833ZM715.466 639.069C714.426 642.314 712.717 645.305 710.449 647.848L697.669 660.598L672.826 635.755L697.669 610.882L710.509 623.721C713.943 627.155 717.586 631.993 715.466 639.069Z" fill="#00ACE4"/>
</svg>