<svg width="302" height="60" viewBox="0 0 302 60" fill="none" xmlns="http://www.w3.org/2000/svg">
<path d="M59.2234 19.6433L44.0077 4.50879C42.2057 2.81649 40.0593 1.52785 37.7133 0.729811C32.5147 -0.989598 27.3411 0.352521 23.1511 4.50879L7.89791 19.6433C6.19445 21.4334 4.89729 23.5657 4.09397 25.8963C2.35696 31.0607 3.70796 36.2005 7.89791 40.3567L23.1325 55.4912C24.9315 57.1842 27.076 58.4728 29.4205 59.2701C30.8408 59.7473 32.3291 59.9936 33.8284 60C37.4829 60 40.9818 58.4661 43.9827 55.4912L59.2109 40.3567C60.9165 38.5673 62.216 36.4348 63.021 34.1037C64.7519 28.9393 63.4008 23.8058 59.2109 19.6433H59.2234ZM34.7436 8.89391C35.8944 9.26047 36.9427 9.86929 37.844 10.669L42.3454 15.1469L33.5669 23.8614L24.7885 15.1407L29.3147 10.6381C30.5287 9.43818 32.2408 8.16409 34.7436 8.89391ZM12.3307 28.828C12.7008 27.6838 13.3097 26.63 14.1175 25.7355L18.6188 21.2638L27.3971 29.9845L18.6125 38.7053L14.0864 34.2026C12.8724 33.0028 11.5961 31.3019 12.3245 28.8156L12.3307 28.828ZM32.3902 51.1309C31.2379 50.7678 30.1767 50.1152 29.2773 49.3126L24.7885 44.8902L33.5669 36.1634L42.3454 44.8839L37.819 49.3867C36.6051 50.5863 34.8992 51.8605 32.3902 51.1309ZM54.8031 31.1968C54.433 32.3396 53.8265 33.393 53.0226 34.2892L48.5212 38.7053L39.743 29.9845L48.5212 21.2638L53.0476 25.7602C54.2614 26.9601 55.5315 28.7104 54.8031 31.1968Z" fill="#1CAAD6" style="fill:#1CAAD6;fill:color(display-p3 0.1098 0.6667 0.8392);fill-opacity:1;"/>
<path d="M107.983 51.3114H115.965V29.6334C115.965 22.9475 111.813 18.012 104.728 18.012C101.277 18.012 97.58 19.5087 95.6586 22.261V6.18018H87.6828V51.2931H95.6586V34.1917C95.6586 30.1963 97.7063 25.1988 102.491 25.1988C106.706 25.1988 107.983 27.5058 107.983 31.2601V51.3114ZM140.215 38.4901C140.215 43.2587 136.733 45.8627 131.797 45.8627C129.326 45.8627 127.107 44.3165 127.107 41.8364C127.107 39.2324 129.452 37.81 131.86 37.6244L140.215 37.006V38.4901ZM146.864 51.8126C148.226 51.856 149.577 51.5581 150.789 50.9468V45.244C150.457 45.3206 150.118 45.3619 149.778 45.3679C148.45 45.3679 147.945 44.8113 147.945 43.3205V31.3652C148.044 29.1571 147.721 26.9502 146.991 24.8586C145.094 20.022 140.279 18.2903 134.647 18.2903C127.297 18.2903 121.407 21.5126 120.964 28.7614H128.631C128.82 25.7864 130.969 24.1783 134.647 24.1783C139.141 24.1783 140.215 26.2193 140.215 29.2561V31.2415L130.52 31.9033C124.251 32.3362 119.378 35.8678 119.378 42.0033C119.378 47.2727 123.429 52.1034 131.285 52.1034C135.968 52.1034 139.766 49.8767 141.29 47.2727C141.543 49.6911 143.439 51.7939 146.858 51.7939L146.864 51.8126ZM171.734 25.9534C172.156 25.9564 172.578 25.9832 172.998 26.0338V18.7356C172.656 18.7356 172.315 18.6614 171.98 18.6614C168.112 18.6614 164.187 20.2076 162.671 23.9248L161.969 19.0943H155.251V51.3178H163.233V35.0823C163.233 29.8746 166.147 25.972 171.715 25.972L171.734 25.9534ZM196.711 51.3301H204.63V29.8128C204.63 23.1207 200.509 18.2903 193.481 18.2903C189.689 18.2903 185.758 19.8365 183.792 23.2382L183.223 19.0881H176.594V51.3114H184.506V38.181C184.506 35.4534 184.443 32.1074 185.587 29.5654C186.662 27.2089 188.501 25.4771 191.275 25.4771C195.453 25.4771 196.717 27.7717 196.717 31.5508L196.711 51.3301ZM230.618 31.9961H216.385C216.35 30.1793 216.955 28.406 218.098 26.9739C218.756 26.1699 219.597 25.5275 220.554 25.0979C221.511 24.6684 222.557 24.4636 223.609 24.4999C224.528 24.4519 225.448 24.5921 226.309 24.9115C227.17 25.2311 227.953 25.7228 228.608 26.3554C229.872 27.7223 230.574 29.5777 230.637 31.9961H230.618ZM238.549 35.4658C238.676 31.4394 238.107 27.7841 235.699 24.2464C232.982 20.22 228.545 18.3026 223.691 18.3026C221.746 18.2471 219.81 18.5811 218.002 19.2841C216.193 19.9871 214.55 21.0443 213.174 22.3909C210.014 25.5514 208.428 30.1344 208.428 35.2802C208.428 40.5499 210.198 45.0711 213.484 48.1695C214.858 49.4747 216.486 50.4979 218.27 51.1787C220.054 51.8596 221.96 52.1846 223.874 52.1341C228.052 52.1341 232.166 50.8353 234.954 47.613C236.218 46.1225 237.551 43.5866 237.741 41.6631H230.156C229.89 42.6961 229.342 43.6392 228.57 44.3906C227.433 45.5038 226.042 45.9368 223.76 45.9368C221.932 45.9308 220.179 45.22 218.882 43.9575C218.062 43.12 217.425 42.1272 217.011 41.0401C216.597 39.9534 216.414 38.7951 216.473 37.6367H238.487C238.487 36.9503 238.549 35.4658 238.549 35.4658ZM249.18 28.0934C249.199 27.3416 249.451 26.6131 249.902 26.0045C250.354 25.3959 250.983 24.9359 251.708 24.6855C252.799 24.2851 253.965 24.1165 255.127 24.1907C256.7 24.1478 258.233 24.6766 259.431 25.6751C260.259 26.4809 260.735 27.5696 260.759 28.7119H268.298C268.204 26.2241 267.165 23.8601 265.385 22.0816C262.983 19.5334 258.995 18.2964 255.07 18.2964C250.95 18.2964 247.486 19.4716 245.066 21.5188C243.985 22.402 243.122 23.5125 242.541 24.7676C241.96 26.0227 241.675 27.39 241.71 28.7675C241.71 32.8558 244.75 36.4491 249.243 37.383C252.157 38.0017 255.45 38.1873 258.363 38.62C260.386 38.9292 261.656 40.1663 261.656 42.028C261.656 45.5596 257.605 46.1161 254.944 46.1161C252.662 46.1161 251.209 45.6834 249.939 44.6938C249.063 43.9265 248.476 42.8941 248.27 41.7619H240.812C241.119 44.3038 242.331 46.6586 244.238 48.411C246.962 50.9528 250.697 52.1218 254.881 52.1218C259.374 52.1218 263.489 51.0086 266.15 48.411C267.095 47.4863 267.837 46.3823 268.329 45.1664C268.821 43.9505 269.054 42.6488 269.013 41.3415C269.013 36.2574 265.22 33.0351 260.019 32.2311C256.789 31.7363 255.968 31.6745 252.991 31.3033C251.222 31.056 249.199 30.3694 249.199 28.081L249.18 28.0934ZM291.139 28.6995H298.654C298.559 26.2117 297.52 23.8477 295.74 22.0693C293.332 19.5334 289.344 18.2964 285.445 18.2964C281.33 18.2964 277.86 19.4716 275.44 21.5188C274.359 22.402 273.496 23.5125 272.915 24.7676C272.334 26.0227 272.05 27.39 272.084 28.7675C272.084 32.8558 275.124 36.4491 279.618 37.383C282.531 38.0017 285.824 38.1873 288.737 38.62C290.76 38.9292 292.03 40.1663 292.03 42.028C292.03 45.5596 287.973 46.1161 285.318 46.1161C283.037 46.1161 281.583 45.6834 280.313 44.6938C279.438 43.9265 278.85 42.8941 278.644 41.7619H271.161C271.467 44.3055 272.683 46.6607 274.593 48.411C277.311 50.9528 281.046 52.1218 285.23 52.1218C289.723 52.1218 293.838 51.0086 296.499 48.411C297.442 47.4852 298.181 46.3805 298.671 45.165C299.162 43.9491 299.392 42.6478 299.349 41.3415C299.349 36.2574 295.557 33.0351 290.356 32.2311C287.126 31.7363 286.304 31.6745 283.327 31.3033C281.558 31.056 279.535 30.3694 279.535 28.081C279.554 27.3292 279.806 26.6007 280.257 25.9921C280.709 25.3836 281.339 24.9236 282.064 24.6731C283.154 24.2728 284.32 24.1041 285.483 24.1783C287.056 24.1355 288.589 24.6643 289.787 25.6627C290.616 26.4679 291.094 27.5565 291.12 28.6995" fill="#F9F9F9" style="fill:#F9F9F9;fill:color(display-p3 0.9765 0.9765 0.9765);fill-opacity:1;"/>
</svg>
